<mxfile host="app.diagrams.net" modified="2023-07-27T19:45:14.411Z" agent="Mozilla/5.0 (Windows NT 10.0; Win64; x64) AppleWebKit/537.36 (KHTML, like Gecko) Chrome/114.0.0.0 Safari/537.36" etag="xbWzkC5LNSKlG576sGd_" version="21.6.5" type="device">
  <diagram name="Página-1" id="12NXJn124l3JYORipmwG">
    <mxGraphModel dx="1311" dy="776" grid="1" gridSize="10" guides="1" tooltips="1" connect="1" arrows="1" fold="1" page="1" pageScale="1" pageWidth="827" pageHeight="1169" math="0" shadow="0">
      <root>
        <mxCell id="0" />
        <mxCell id="1" parent="0" />
        <mxCell id="etLmmfsHEsekf192ePTm-1" value="&lt;div&gt;Uma clínica veterinária deseja cadastrar os pets que são atendidos em seu local.&lt;/div&gt;&lt;div&gt;&lt;br&gt;&lt;/div&gt;&lt;div&gt;- a clínica contém um endereço;&lt;/div&gt;&lt;div&gt;- os pets deverão ter nome, data de nascimento, tipo de pet;&lt;/div&gt;&lt;div&gt;- os pets deverão ter raça;&lt;/div&gt;&lt;div&gt;- os pets deverão ter donos;&lt;/div&gt;&lt;div&gt;- a clínica deseja cadastrar seus veterinários e todo atendimento de pet será feito por um veterinário;&lt;/div&gt;" style="text;html=1;align=center;verticalAlign=middle;resizable=0;points=[];autosize=1;strokeColor=none;fillColor=none;" parent="1" vertex="1">
          <mxGeometry x="134" y="48" width="560" height="110" as="geometry" />
        </mxCell>
        <mxCell id="etLmmfsHEsekf192ePTm-15" style="edgeStyle=orthogonalEdgeStyle;rounded=0;orthogonalLoop=1;jettySize=auto;html=1;exitX=1;exitY=0.5;exitDx=0;exitDy=0;entryX=0;entryY=0.5;entryDx=0;entryDy=0;endArrow=none;endFill=0;" parent="1" source="etLmmfsHEsekf192ePTm-2" target="etLmmfsHEsekf192ePTm-13" edge="1">
          <mxGeometry relative="1" as="geometry" />
        </mxCell>
        <mxCell id="etLmmfsHEsekf192ePTm-26" style="edgeStyle=orthogonalEdgeStyle;rounded=0;orthogonalLoop=1;jettySize=auto;html=1;exitX=0.5;exitY=0;exitDx=0;exitDy=0;entryX=0.5;entryY=1;entryDx=0;entryDy=0;endArrow=none;endFill=0;" parent="1" source="etLmmfsHEsekf192ePTm-2" target="etLmmfsHEsekf192ePTm-3" edge="1">
          <mxGeometry relative="1" as="geometry" />
        </mxCell>
        <mxCell id="etLmmfsHEsekf192ePTm-2" value="Clínica" style="rounded=0;whiteSpace=wrap;html=1;" parent="1" vertex="1">
          <mxGeometry x="90" y="335" width="120" height="60" as="geometry" />
        </mxCell>
        <mxCell id="etLmmfsHEsekf192ePTm-3" value="Endereço" style="ellipse;whiteSpace=wrap;html=1;" parent="1" vertex="1">
          <mxGeometry x="90" y="220" width="120" height="80" as="geometry" />
        </mxCell>
        <mxCell id="l8pzl9he7K-KlriiZMEW-2" style="edgeStyle=orthogonalEdgeStyle;rounded=0;orthogonalLoop=1;jettySize=auto;html=1;exitX=1;exitY=0.5;exitDx=0;exitDy=0;entryX=0;entryY=0.5;entryDx=0;entryDy=0;endArrow=none;endFill=0;" edge="1" parent="1" source="etLmmfsHEsekf192ePTm-13" target="l8pzl9he7K-KlriiZMEW-1">
          <mxGeometry relative="1" as="geometry" />
        </mxCell>
        <mxCell id="etLmmfsHEsekf192ePTm-13" value="Possui" style="rhombus;whiteSpace=wrap;html=1;" parent="1" vertex="1">
          <mxGeometry x="250" y="325" width="80" height="80" as="geometry" />
        </mxCell>
        <mxCell id="etLmmfsHEsekf192ePTm-22" value="1" style="text;html=1;align=center;verticalAlign=middle;resizable=0;points=[];autosize=1;strokeColor=#82b366;fillColor=#d5e8d4;" parent="1" vertex="1">
          <mxGeometry x="210" y="335" width="30" height="30" as="geometry" />
        </mxCell>
        <mxCell id="l8pzl9he7K-KlriiZMEW-4" style="edgeStyle=orthogonalEdgeStyle;rounded=0;orthogonalLoop=1;jettySize=auto;html=1;exitX=0.5;exitY=1;exitDx=0;exitDy=0;entryX=0.5;entryY=0;entryDx=0;entryDy=0;endArrow=none;endFill=0;" edge="1" parent="1" source="l8pzl9he7K-KlriiZMEW-1" target="l8pzl9he7K-KlriiZMEW-3">
          <mxGeometry relative="1" as="geometry" />
        </mxCell>
        <mxCell id="l8pzl9he7K-KlriiZMEW-1" value="Veterinario" style="rounded=0;whiteSpace=wrap;html=1;" vertex="1" parent="1">
          <mxGeometry x="370" y="335" width="120" height="60" as="geometry" />
        </mxCell>
        <mxCell id="l8pzl9he7K-KlriiZMEW-6" style="edgeStyle=orthogonalEdgeStyle;rounded=0;orthogonalLoop=1;jettySize=auto;html=1;exitX=0.5;exitY=1;exitDx=0;exitDy=0;entryX=0.5;entryY=0;entryDx=0;entryDy=0;endArrow=none;endFill=0;" edge="1" parent="1" source="l8pzl9he7K-KlriiZMEW-3" target="l8pzl9he7K-KlriiZMEW-5">
          <mxGeometry relative="1" as="geometry" />
        </mxCell>
        <mxCell id="l8pzl9he7K-KlriiZMEW-3" value="Possui" style="rhombus;whiteSpace=wrap;html=1;" vertex="1" parent="1">
          <mxGeometry x="390" y="430" width="80" height="80" as="geometry" />
        </mxCell>
        <mxCell id="l8pzl9he7K-KlriiZMEW-8" style="edgeStyle=orthogonalEdgeStyle;rounded=0;orthogonalLoop=1;jettySize=auto;html=1;exitX=0.5;exitY=1;exitDx=0;exitDy=0;entryX=0.5;entryY=0;entryDx=0;entryDy=0;endArrow=none;endFill=0;" edge="1" parent="1" source="l8pzl9he7K-KlriiZMEW-5" target="l8pzl9he7K-KlriiZMEW-7">
          <mxGeometry relative="1" as="geometry" />
        </mxCell>
        <mxCell id="l8pzl9he7K-KlriiZMEW-5" value="Atendimento" style="rounded=0;whiteSpace=wrap;html=1;" vertex="1" parent="1">
          <mxGeometry x="370" y="540" width="120" height="60" as="geometry" />
        </mxCell>
        <mxCell id="l8pzl9he7K-KlriiZMEW-10" style="edgeStyle=orthogonalEdgeStyle;rounded=0;orthogonalLoop=1;jettySize=auto;html=1;exitX=0.5;exitY=1;exitDx=0;exitDy=0;entryX=0.5;entryY=0;entryDx=0;entryDy=0;endArrow=none;endFill=0;" edge="1" parent="1" source="l8pzl9he7K-KlriiZMEW-7" target="l8pzl9he7K-KlriiZMEW-9">
          <mxGeometry relative="1" as="geometry" />
        </mxCell>
        <mxCell id="l8pzl9he7K-KlriiZMEW-7" value="Possui" style="rhombus;whiteSpace=wrap;html=1;" vertex="1" parent="1">
          <mxGeometry x="390" y="650" width="80" height="80" as="geometry" />
        </mxCell>
        <mxCell id="l8pzl9he7K-KlriiZMEW-18" style="edgeStyle=orthogonalEdgeStyle;rounded=0;orthogonalLoop=1;jettySize=auto;html=1;exitX=1;exitY=0.5;exitDx=0;exitDy=0;entryX=0;entryY=0.5;entryDx=0;entryDy=0;endArrow=none;endFill=0;" edge="1" parent="1" source="l8pzl9he7K-KlriiZMEW-9" target="l8pzl9he7K-KlriiZMEW-15">
          <mxGeometry relative="1" as="geometry" />
        </mxCell>
        <mxCell id="l8pzl9he7K-KlriiZMEW-36" style="edgeStyle=orthogonalEdgeStyle;rounded=0;orthogonalLoop=1;jettySize=auto;html=1;exitX=0.25;exitY=0;exitDx=0;exitDy=0;entryX=0.5;entryY=1;entryDx=0;entryDy=0;endArrow=none;endFill=0;" edge="1" parent="1" source="l8pzl9he7K-KlriiZMEW-9" target="l8pzl9he7K-KlriiZMEW-34">
          <mxGeometry relative="1" as="geometry" />
        </mxCell>
        <mxCell id="l8pzl9he7K-KlriiZMEW-37" style="edgeStyle=orthogonalEdgeStyle;rounded=0;orthogonalLoop=1;jettySize=auto;html=1;exitX=0.75;exitY=0;exitDx=0;exitDy=0;entryX=0.5;entryY=1;entryDx=0;entryDy=0;endArrow=none;endFill=0;" edge="1" parent="1" source="l8pzl9he7K-KlriiZMEW-9" target="l8pzl9he7K-KlriiZMEW-35">
          <mxGeometry relative="1" as="geometry" />
        </mxCell>
        <mxCell id="l8pzl9he7K-KlriiZMEW-9" value="Pet" style="rounded=0;whiteSpace=wrap;html=1;" vertex="1" parent="1">
          <mxGeometry x="370" y="770" width="120" height="60" as="geometry" />
        </mxCell>
        <mxCell id="l8pzl9he7K-KlriiZMEW-13" style="edgeStyle=orthogonalEdgeStyle;rounded=0;orthogonalLoop=1;jettySize=auto;html=1;exitX=0.5;exitY=0;exitDx=0;exitDy=0;entryX=0.5;entryY=1;entryDx=0;entryDy=0;endArrow=none;endFill=0;" edge="1" parent="1" source="l8pzl9he7K-KlriiZMEW-11" target="l8pzl9he7K-KlriiZMEW-9">
          <mxGeometry relative="1" as="geometry" />
        </mxCell>
        <mxCell id="l8pzl9he7K-KlriiZMEW-11" value="Possui" style="rhombus;whiteSpace=wrap;html=1;" vertex="1" parent="1">
          <mxGeometry x="390" y="870" width="80" height="80" as="geometry" />
        </mxCell>
        <mxCell id="l8pzl9he7K-KlriiZMEW-14" style="edgeStyle=orthogonalEdgeStyle;rounded=0;orthogonalLoop=1;jettySize=auto;html=1;exitX=0.5;exitY=0;exitDx=0;exitDy=0;entryX=0.5;entryY=1;entryDx=0;entryDy=0;endArrow=none;endFill=0;" edge="1" parent="1" source="l8pzl9he7K-KlriiZMEW-12" target="l8pzl9he7K-KlriiZMEW-11">
          <mxGeometry relative="1" as="geometry" />
        </mxCell>
        <mxCell id="l8pzl9he7K-KlriiZMEW-12" value="Raça" style="rounded=0;whiteSpace=wrap;html=1;" vertex="1" parent="1">
          <mxGeometry x="370" y="1000" width="120" height="60" as="geometry" />
        </mxCell>
        <mxCell id="l8pzl9he7K-KlriiZMEW-22" style="edgeStyle=orthogonalEdgeStyle;rounded=0;orthogonalLoop=1;jettySize=auto;html=1;exitX=1;exitY=0.5;exitDx=0;exitDy=0;entryX=0;entryY=0.5;entryDx=0;entryDy=0;endArrow=none;endFill=0;" edge="1" parent="1" source="l8pzl9he7K-KlriiZMEW-15" target="l8pzl9he7K-KlriiZMEW-19">
          <mxGeometry relative="1" as="geometry" />
        </mxCell>
        <mxCell id="l8pzl9he7K-KlriiZMEW-15" value="Possui" style="rhombus;whiteSpace=wrap;html=1;" vertex="1" parent="1">
          <mxGeometry x="530" y="760" width="80" height="80" as="geometry" />
        </mxCell>
        <mxCell id="l8pzl9he7K-KlriiZMEW-17" style="edgeStyle=orthogonalEdgeStyle;rounded=0;orthogonalLoop=1;jettySize=auto;html=1;exitX=1;exitY=0.5;exitDx=0;exitDy=0;entryX=0;entryY=0.5;entryDx=0;entryDy=0;endArrow=none;endFill=0;" edge="1" parent="1" source="l8pzl9he7K-KlriiZMEW-16" target="l8pzl9he7K-KlriiZMEW-9">
          <mxGeometry relative="1" as="geometry" />
        </mxCell>
        <mxCell id="l8pzl9he7K-KlriiZMEW-16" value="Possui" style="rhombus;whiteSpace=wrap;html=1;" vertex="1" parent="1">
          <mxGeometry x="240" y="760" width="80" height="80" as="geometry" />
        </mxCell>
        <mxCell id="l8pzl9he7K-KlriiZMEW-19" value="TipoPet" style="rounded=0;whiteSpace=wrap;html=1;" vertex="1" parent="1">
          <mxGeometry x="650" y="770" width="120" height="60" as="geometry" />
        </mxCell>
        <mxCell id="l8pzl9he7K-KlriiZMEW-21" style="edgeStyle=orthogonalEdgeStyle;rounded=0;orthogonalLoop=1;jettySize=auto;html=1;exitX=1;exitY=0.5;exitDx=0;exitDy=0;entryX=0;entryY=0.5;entryDx=0;entryDy=0;endArrow=none;endFill=0;" edge="1" parent="1" source="l8pzl9he7K-KlriiZMEW-20" target="l8pzl9he7K-KlriiZMEW-16">
          <mxGeometry relative="1" as="geometry" />
        </mxCell>
        <mxCell id="l8pzl9he7K-KlriiZMEW-20" value="Dono" style="rounded=0;whiteSpace=wrap;html=1;" vertex="1" parent="1">
          <mxGeometry x="70" y="770" width="120" height="60" as="geometry" />
        </mxCell>
        <mxCell id="l8pzl9he7K-KlriiZMEW-23" value="N" style="text;html=1;align=center;verticalAlign=middle;resizable=0;points=[];autosize=1;strokeColor=#6c8ebf;fillColor=#dae8fc;" vertex="1" parent="1">
          <mxGeometry x="340" y="335" width="30" height="30" as="geometry" />
        </mxCell>
        <mxCell id="l8pzl9he7K-KlriiZMEW-24" value="1" style="text;html=1;align=center;verticalAlign=middle;resizable=0;points=[];autosize=1;strokeColor=#82b366;fillColor=#d5e8d4;" vertex="1" parent="1">
          <mxGeometry x="430" y="395" width="30" height="30" as="geometry" />
        </mxCell>
        <mxCell id="l8pzl9he7K-KlriiZMEW-25" value="N" style="text;html=1;align=center;verticalAlign=middle;resizable=0;points=[];autosize=1;strokeColor=#6c8ebf;fillColor=#dae8fc;" vertex="1" parent="1">
          <mxGeometry x="430" y="510" width="30" height="30" as="geometry" />
        </mxCell>
        <mxCell id="l8pzl9he7K-KlriiZMEW-26" value="N" style="text;html=1;align=center;verticalAlign=middle;resizable=0;points=[];autosize=1;strokeColor=#6c8ebf;fillColor=#dae8fc;" vertex="1" parent="1">
          <mxGeometry x="430" y="600" width="30" height="30" as="geometry" />
        </mxCell>
        <mxCell id="l8pzl9he7K-KlriiZMEW-27" value="1" style="text;html=1;align=center;verticalAlign=middle;resizable=0;points=[];autosize=1;strokeColor=#82b366;fillColor=#d5e8d4;" vertex="1" parent="1">
          <mxGeometry x="430" y="740" width="30" height="30" as="geometry" />
        </mxCell>
        <mxCell id="l8pzl9he7K-KlriiZMEW-28" value="N" style="text;html=1;align=center;verticalAlign=middle;resizable=0;points=[];autosize=1;strokeColor=#6c8ebf;fillColor=#dae8fc;" vertex="1" parent="1">
          <mxGeometry x="399" y="830" width="30" height="30" as="geometry" />
        </mxCell>
        <mxCell id="l8pzl9he7K-KlriiZMEW-29" value="1" style="text;html=1;align=center;verticalAlign=middle;resizable=0;points=[];autosize=1;strokeColor=#82b366;fillColor=#d5e8d4;" vertex="1" parent="1">
          <mxGeometry x="400" y="970" width="30" height="30" as="geometry" />
        </mxCell>
        <mxCell id="l8pzl9he7K-KlriiZMEW-30" value="N" style="text;html=1;align=center;verticalAlign=middle;resizable=0;points=[];autosize=1;strokeColor=#6c8ebf;fillColor=#dae8fc;" vertex="1" parent="1">
          <mxGeometry x="340" y="770" width="30" height="30" as="geometry" />
        </mxCell>
        <mxCell id="l8pzl9he7K-KlriiZMEW-31" value="N" style="text;html=1;align=center;verticalAlign=middle;resizable=0;points=[];autosize=1;strokeColor=#6c8ebf;fillColor=#dae8fc;" vertex="1" parent="1">
          <mxGeometry x="490" y="770" width="30" height="30" as="geometry" />
        </mxCell>
        <mxCell id="l8pzl9he7K-KlriiZMEW-32" value="1" style="text;html=1;align=center;verticalAlign=middle;resizable=0;points=[];autosize=1;strokeColor=#82b366;fillColor=#d5e8d4;" vertex="1" parent="1">
          <mxGeometry x="620" y="770" width="30" height="30" as="geometry" />
        </mxCell>
        <mxCell id="l8pzl9he7K-KlriiZMEW-33" value="1" style="text;html=1;align=center;verticalAlign=middle;resizable=0;points=[];autosize=1;strokeColor=#82b366;fillColor=#d5e8d4;" vertex="1" parent="1">
          <mxGeometry x="190" y="770" width="30" height="30" as="geometry" />
        </mxCell>
        <mxCell id="l8pzl9he7K-KlriiZMEW-34" value="DataNascimento" style="ellipse;whiteSpace=wrap;html=1;" vertex="1" parent="1">
          <mxGeometry x="270" y="670" width="90" height="40" as="geometry" />
        </mxCell>
        <mxCell id="l8pzl9he7K-KlriiZMEW-35" value="Nome" style="ellipse;whiteSpace=wrap;html=1;" vertex="1" parent="1">
          <mxGeometry x="500" y="670" width="90" height="40" as="geometry" />
        </mxCell>
        <mxCell id="l8pzl9he7K-KlriiZMEW-38" value="Conceitual" style="rounded=0;whiteSpace=wrap;html=1;fillColor=#f8cecc;strokeColor=#b85450;" vertex="1" parent="1">
          <mxGeometry x="370" y="230" width="120" height="30" as="geometry" />
        </mxCell>
      </root>
    </mxGraphModel>
  </diagram>
</mxfile>
